<?xml version="1.0" standalone="no"?>
<!DOCTYPE svg PUBLIC "-//W3C//DTD SVG 20010904//EN"
 "http://www.w3.org/TR/2001/REC-SVG-20010904/DTD/svg10.dtd">
<svg version="1.0" xmlns="http://www.w3.org/2000/svg"
 width="360.000000pt" height="360.000000pt" viewBox="0 0 360.000000 360.000000"
 preserveAspectRatio="xMidYMid meet">

<g transform="translate(0.000000,360.000000) scale(0.100000,-0.100000)"
fill="#000000" stroke="none">
<path d="M1821 3080 c-46 -27 -115 -75 -153 -107 -44 -36 -73 -53 -76 -45 -6
19 -29 14 -49 -12 -17 -21 -26 -23 -105 -22 -85 1 -87 0 -121 -32 -20 -19 -37
-29 -41 -24 -3 6 -26 18 -51 27 -93 36 -126 -11 -59 -85 19 -21 43 -42 52 -44
15 -5 17 -35 20 -291 3 -266 2 -288 -17 -330 -22 -50 -61 -76 -84 -56 -8 6
-22 33 -32 59 -59 155 -126 231 -235 266 -55 18 -70 28 -102 71 -21 28 -38 53
-38 58 0 4 12 8 28 8 20 1 22 2 7 6 -11 3 -29 13 -40 23 -46 41 -90 60 -142
60 l-52 0 -52 -72 c-104 -148 -210 -417 -233 -593 l-7 -50 20 41 c53 115 211
193 397 195 65 1 94 5 94 14 0 22 -45 54 -115 79 -93 33 -136 78 -134 138 1
24 4 33 6 21 7 -34 23 -28 24 10 0 30 1 31 11 9 14 -29 31 -23 39 14 l6 29 7
-27 c4 -15 5 -32 1 -37 -3 -6 -1 -11 5 -11 6 0 17 14 24 31 9 22 15 28 20 18
3 -8 4 -3 2 11 -5 24 -4 24 9 6 8 -11 15 -24 15 -29 0 -4 5 -5 11 -1 7 4 9 19
5 38 l-6 31 37 -41 c32 -34 50 -43 108 -58 96 -24 146 -55 187 -118 41 -63
100 -202 88 -206 -5 -2 -21 5 -36 15 -21 14 -26 14 -23 3 3 -8 21 -23 41 -33
74 -37 160 17 174 108 3 25 5 111 2 191 l-3 146 25 -32 c14 -17 45 -71 70
-118 52 -98 92 -132 139 -116 25 9 26 11 22 84 -1 41 -1 73 2 70 3 -3 11 -97
18 -211 14 -231 7 -297 -39 -383 -65 -120 -162 -126 -266 -15 -47 50 -60 56
-86 39 -12 -7 -14 -28 -12 -102 l3 -93 -41 -63 c-53 -82 -77 -80 -45 3 7 19 7
19 -11 3 -14 -14 -19 -40 -25 -120 -4 -57 -8 -104 -8 -106 -1 -2 -13 6 -28 18
-14 11 -46 25 -70 31 l-43 11 0 88 c0 70 -4 92 -19 111 -52 67 -85 191 -74
276 3 25 -1 45 -11 58 -25 33 -47 8 -71 -81 -11 -43 -29 -94 -38 -111 -19 -36
-70 -68 -94 -58 -10 3 -22 -3 -30 -15 -14 -19 -21 -20 -86 -14 -41 4 -87 15
-108 26 -43 24 -89 90 -90 133 -1 23 -3 20 -9 -15 -11 -68 6 -252 35 -369 32
-130 40 -146 54 -108 6 16 11 35 11 43 0 8 4 14 9 14 14 0 40 -86 47 -156 l7
-63 -42 11 c-23 6 -45 8 -48 4 -10 -10 30 -58 72 -87 21 -14 43 -39 49 -54
l12 -29 22 32 c13 17 24 49 26 70 3 22 14 58 25 80 12 23 21 52 21 65 0 29 16
44 50 47 44 4 50 1 50 -25 0 -31 12 -32 25 -2 8 17 18 22 44 20 19 -1 37 -7
41 -14 5 -6 15 -9 24 -6 11 5 16 1 16 -13 0 -11 5 -20 10 -20 6 0 10 -18 10
-41 0 -22 4 -38 9 -35 5 3 7 15 4 26 -8 31 15 24 32 -10 21 -40 19 -50 -9 -50
-34 0 -40 -15 -8 -16 15 -1 45 -4 67 -7 22 -2 29 -2 15 0 -20 3 -31 17 -51 62
l-26 57 26 12 c57 27 89 9 111 -63 32 -104 138 -138 210 -67 23 23 41 29 116
39 152 20 271 67 431 170 l28 18 -20 -25 c-11 -14 -26 -32 -33 -40 -6 -8 -25
-42 -42 -75 -32 -65 -36 -69 75 79 77 103 149 153 264 184 45 13 84 22 86 20
2 -2 0 -23 -4 -48 -4 -25 -4 -60 0 -78 6 -31 74 -119 94 -121 5 -1 23 -14 40
-29 38 -36 104 -56 157 -47 38 7 39 6 29 -13 -13 -25 -15 -75 -2 -68 5 3 9 -5
9 -19 0 -28 47 -124 69 -142 9 -7 13 -19 10 -27 -4 -11 -1 -13 10 -9 12 5 15
2 10 -10 -8 -21 2 -22 32 -1 l23 16 -8 -48 c-3 -27 -15 -71 -25 -97 -11 -27
-15 -46 -10 -42 5 3 20 31 32 63 18 45 23 77 23 157 0 90 -3 110 -37 205 -20
58 -37 112 -37 119 0 8 20 35 44 61 52 55 63 96 47 170 -6 28 -11 61 -11 73 1
19 5 17 38 -19 46 -51 71 -64 119 -64 51 0 122 48 89 60 -7 3 -33 30 -57 60
-51 63 -99 91 -149 87 -29 -2 -36 2 -38 20 -3 17 5 25 31 37 42 17 114 80 131
115 22 43 27 97 15 148 -13 52 -57 143 -88 183 -19 24 -19 24 -1 -30 26 -73
25 -156 -1 -225 -15 -40 -27 -57 -43 -61 -33 -8 -194 2 -236 15 -40 12 -139
14 -156 3 -7 -4 27 -7 75 -7 47 -1 95 -6 106 -13 11 -6 14 -12 8 -12 -7 0 -13
-4 -13 -9 0 -6 13 -6 33 0 43 12 83 3 118 -29 22 -19 26 -28 17 -35 -9 -6 -8
-7 5 -3 20 6 47 -2 47 -15 0 -4 -14 -6 -31 -4 -24 3 -29 1 -21 -7 8 -8 7 -14
-5 -23 -10 -8 -13 -19 -9 -33 7 -22 15 -25 91 -37 29 -5 52 -19 87 -54 87 -87
52 -100 -41 -16 -41 37 -71 55 -89 56 -15 0 -36 4 -47 8 -11 5 -30 5 -42 0
-14 -5 -23 -5 -23 1 0 6 8 10 17 10 12 0 14 3 7 10 -25 25 -54 -12 -54 -69 0
-14 -7 -33 -17 -43 -15 -16 -15 -18 0 -18 9 0 21 9 27 21 7 11 17 18 25 16 7
-3 18 0 24 6 7 7 11 7 11 1 0 -6 -10 -16 -22 -22 -22 -10 -22 -11 -3 -12 20
-1 20 -1 1 -15 -17 -13 -17 -15 -3 -15 9 0 20 8 26 17 14 26 21 13 33 -59 14
-79 7 -109 -37 -156 -31 -33 -34 -35 -35 -15 0 12 -5 25 -10 28 -6 4 -10 12
-9 18 2 20 -13 59 -20 50 -3 -5 -19 -17 -36 -27 -20 -13 -26 -15 -18 -4 20 23
6 28 -83 28 -66 0 -83 -3 -88 -16 -3 -9 -3 -21 1 -26 4 -7 1 -8 -6 -4 -7 5
-10 13 -8 20 6 15 -35 16 -45 2 -4 -6 -5 -28 -3 -48 6 -46 -5 -54 -38 -28 -38
30 -49 74 -37 145 5 33 10 79 10 102 0 23 5 54 12 68 14 30 43 35 33 5 -4 -14
2 -27 21 -45 27 -25 71 -38 46 -13 -7 7 -12 23 -12 36 0 46 -16 60 -66 60 -27
-1 -49 4 -54 11 -13 22 -49 2 -70 -39 -27 -53 -40 -58 -40 -17 0 52 27 79 91
89 30 5 62 9 72 9 9 0 17 5 17 11 0 6 -17 7 -48 3 -40 -5 -57 -2 -96 18 l-49
25 35 11 c19 6 45 21 57 32 20 18 32 21 97 17 70 -3 73 -2 53 13 -17 13 -32
14 -80 7 -52 -8 -65 -7 -105 12 -83 41 -92 100 -34 225 28 59 31 76 26 119 -7
63 -21 78 -29 31 -3 -19 -28 -75 -56 -123 -76 -134 -84 -186 -40 -273 20 -40
78 -95 115 -109 l23 -9 -29 -30 c-22 -21 -30 -39 -30 -63 0 -19 -6 -43 -14
-54 -13 -16 -18 -17 -35 -6 -32 19 -27 -11 5 -37 44 -35 121 -21 161 29 11 13
12 13 13 0 0 -40 -13 -60 -39 -60 -65 0 -178 -45 -237 -93 -36 -29 -145 -93
-241 -141 -64 -32 -81 -36 -148 -36 -42 0 -108 7 -147 16 l-70 16 5 32 c2 17
14 67 26 110 12 47 21 109 21 153 0 70 1 74 26 83 14 6 28 10 32 10 4 0 22
-28 40 -63 18 -34 41 -73 52 -87 11 -14 -1 15 -26 64 l-45 89 43 24 c63 35
114 89 140 147 22 49 23 60 19 246 -2 107 -4 237 -5 289 l-1 94 53 20 52 20
42 -29 c76 -53 168 -30 174 43 1 15 4 33 5 38 2 6 -1 28 -8 50 -6 22 -17 59
-23 83 -10 39 -17 46 -63 68 -29 13 -62 24 -74 24 -25 0 -53 25 -53 46 0 8
-12 26 -26 39 -15 14 -23 25 -18 25 5 0 34 23 64 50 74 68 173 133 266 176 83
39 85 54 8 54 -31 0 -60 -11 -123 -50z m-245 -169 c-4 -5 -2 -11 4 -13 6 -2 6
-9 0 -18 -7 -12 -12 -12 -21 -3 -9 9 -9 16 1 28 14 16 25 21 16 6z m-75 -42
c9 -5 19 -6 22 -3 9 10 42 -18 85 -73 30 -37 37 -53 27 -56 -16 -7 -40 18 -50
51 -8 26 -79 62 -124 62 -16 0 -40 -9 -54 -20 -27 -21 -53 -25 -76 -11 -17 11
-7 28 33 52 24 15 41 18 76 13 25 -4 52 -10 61 -15z m-234 -45 c18 -14 33 -32
33 -42 0 -11 -8 -6 -27 16 -16 18 -46 40 -68 48 -39 15 -39 15 -6 9 19 -3 49
-17 68 -31z m-49 -8 c16 -16 33 -76 21 -76 -13 0 -89 78 -89 91 0 14 50 3 68
-15z m305 -6 c14 -11 30 -20 35 -20 14 0 23 -29 15 -44 -14 -24 -80 -76 -96
-76 -21 0 -47 11 -47 19 0 4 13 6 29 3 39 -5 83 35 74 68 -8 31 -68 55 -100
41 -27 -12 -29 -9 -7 13 21 22 66 20 97 -4z m105 -15 c-3 -3 -9 2 -12 12 -6
14 -5 15 5 6 7 -7 10 -15 7 -18z m-117 -32 c12 -14 12 -16 0 -8 -8 4 -28 12
-45 16 l-31 7 31 1 c19 1 37 -6 45 -16z m234 -51 c77 -32 77 -33 85 -118 9
-90 4 -101 -51 -110 -35 -6 -75 10 -160 63 -33 21 -64 13 -117 -32 -34 -30
-42 -33 -42 -18 -1 17 -1 17 -15 -1 -9 -12 -15 -15 -15 -7 0 11 -3 11 -16 0
-12 -10 -17 -10 -23 -1 -4 7 -14 10 -22 7 -31 -12 -52 20 -57 82 -4 53 -1 63
21 89 l26 29 21 -22 c30 -33 67 -39 121 -20 58 21 98 22 105 2 10 -25 23 -17
22 15 -2 59 40 75 117 42z m-262 1 c-7 -2 -21 -2 -30 0 -10 3 -4 5 12 5 17 0
24 -2 18 -5z m-220 -133 c4 -37 3 -50 -3 -40 -9 14 -15 109 -6 99 2 -2 6 -29
9 -59z m571 -127 c-20 -15 -49 -16 -79 -3 -18 8 -18 9 5 10 14 0 39 7 55 14
35 15 48 0 19 -21z m-1075 -20 c10 -23 10 -23 -13 -8 -30 20 -45 61 -16 42 10
-6 23 -21 29 -34z m-331 -48 c-3 -3 -9 2 -12 12 -6 14 -5 15 5 6 7 -7 10 -15
7 -18z m2267 -605 c-27 -28 -29 -29 -57 -14 -17 9 -28 18 -25 21 3 2 15 -1 27
-7 19 -10 26 -8 48 14 36 35 42 23 7 -14z m-650 20 c-3 -5 -10 -10 -16 -10 -5
0 -9 5 -9 10 0 6 7 10 16 10 8 0 12 -4 9 -10z m-38 -16 c-3 -3 -12 -4 -19 -1
-8 3 -5 6 6 6 11 1 17 -2 13 -5z m540 -206 c-3 -8 -6 -5 -6 6 -1 11 2 17 5 13
3 -3 4 -12 1 -19z m-481 -30 c16 2 14 -2 -9 -23 -20 -17 -39 -25 -65 -25 -49
0 -72 14 -40 25 12 4 26 8 31 10 4 1 12 3 17 4 6 0 16 13 23 27 l12 27 5 -24
c5 -17 12 -23 26 -21z m-818 -45 c-4 -75 -46 -253 -59 -253 -15 0 -27 201 -16
262 4 23 47 68 65 68 12 0 14 -14 10 -77z m1412 -15 c0 -14 -19 1 -31 25 -12
22 -12 22 10 3 11 -11 21 -23 21 -28z m-2293 -60 c-2 -18 -4 -4 -4 32 0 36 2
50 4 33 2 -18 2 -48 0 -65z m2378 76 c14 -9 31 -14 40 -11 8 4 17 2 20 -4 10
-15 -63 -41 -96 -34 -36 8 -45 21 -19 28 11 3 18 1 14 -4 -3 -5 -1 -9 4 -9 17
0 21 13 11 31 -12 23 -6 24 26 3z m-1967 -19 c-3 -3 -9 2 -12 12 -6 14 -5 15
5 6 7 -7 10 -15 7 -18z m-338 -11 c0 -2 -9 0 -20 6 -11 6 -20 13 -20 16 0 2 9
0 20 -6 11 -6 20 -13 20 -16z m127 0 c-3 -3 -12 -4 -19 -1 -8 3 -5 6 6 6 11 1
17 -2 13 -5z m209 -40 c-5 -12 -15 -14 -53 -8 -27 4 -57 11 -68 16 -20 8 24 4
88 -8 23 -5 27 -2 28 18 0 13 3 17 6 10 3 -7 2 -20 -1 -28z m51 -41 c-3 -10
-5 -4 -5 12 0 17 2 24 5 18 2 -7 2 -21 0 -30z m227 -60 c7 -60 6 -63 -15 -63
-19 0 -21 4 -15 31 3 17 6 55 7 83 0 65 13 37 23 -51z m-326 66 c76 -12 88
-25 37 -42 -21 -7 -35 -6 -55 7 -29 17 -95 22 -104 8 -3 -5 8 -9 24 -9 16 0
36 -5 44 -13 30 -24 16 -28 -33 -10 -27 11 -51 16 -55 13 -9 -10 -7 13 4 42 9
23 15 26 38 21 15 -3 60 -11 100 -17z m-340 -57 c4 -35 -5 -25 -12 12 -3 16
-2 25 1 22 4 -4 9 -19 11 -34z m486 -7 c25 -39 31 -81 12 -88 -11 -4 -21 3
-31 22 -8 16 -28 40 -44 54 -32 27 -28 35 20 36 18 1 32 -7 43 -24z m66 5 c42
-21 54 -44 45 -83 -6 -23 -9 -24 -36 -14 -17 7 -29 19 -29 30 0 9 -7 33 -14
52 -8 19 -13 35 -10 35 3 0 22 -9 44 -20z m-284 -44 c2 -13 -1 -15 -11 -6 -8
7 -30 10 -50 7 -41 -6 -44 13 -4 24 32 8 62 -4 65 -25z m131 9 c21 -15 61 -81
42 -70 -5 4 -9 0 -9 -7 0 -7 -8 -1 -18 14 -9 15 -21 27 -27 26 -5 -1 -23 4
-38 10 -16 7 -34 12 -40 12 -21 1 26 30 48 30 11 0 30 -7 42 -15z m-368 -97
c4 -32 5 -58 1 -58 -4 0 -10 26 -13 58 -4 31 -9 68 -12 82 l-6 25 11 -24 c6
-14 14 -51 19 -83z m612 -1 c12 -52 8 -67 -15 -48 -8 7 -20 10 -25 6 -7 -4 -8
1 -4 11 4 11 2 15 -4 11 -6 -4 -13 3 -16 14 -5 19 -3 19 24 -7 30 -29 39 -23
15 12 -8 11 -12 31 -9 48 7 35 18 20 34 -47z m74 31 c38 -10 47 -17 54 -43 12
-45 4 -55 -43 -55 -46 0 -52 7 -75 78 -12 37 -7 39 64 20z m84 -62 c-1 -17 -2
-16 -9 6 -4 14 -11 32 -15 40 -3 7 1 4 9 -6 9 -11 16 -29 15 -40z m116 13 c22
-4 58 -8 79 -9 60 0 38 -10 -60 -26 -116 -18 -111 -19 -116 22 -4 35 -4 36 26
29 17 -4 49 -11 71 -16z m950 -7 c-3 -3 -11 0 -18 7 -9 10 -8 11 6 5 10 -3 15
-9 12 -12z m-1187 -53 c20 -31 -1 -49 -28 -24 -15 14 -17 21 -9 32 16 18 22
17 37 -8z m132 12 c0 -6 -11 -23 -25 -38 -18 -20 -23 -22 -18 -9 5 16 32 52
41 55 1 1 2 -3 2 -8z m-810 -17 c77 -11 80 -13 80 -44 0 -35 -22 -40 -68 -16
-36 19 -95 82 -67 72 11 -4 36 -10 55 -12z m737 -40 c-32 -27 -69 -23 -43 5 8
9 27 17 43 18 l28 1 -28 -24z"/>
<path d="M1658 2643 c-24 -6 -23 -36 3 -59 15 -13 38 -19 87 -21 61 -2 63 -1
25 7 -43 9 -93 36 -93 50 0 26 81 19 102 -9 10 -13 10 -14 -2 -3 -8 6 -28 12
-44 12 -30 -1 -30 -1 -11 -16 28 -21 68 -30 73 -16 2 7 8 10 13 7 5 -4 6 1 3
10 -14 35 -94 54 -156 38z"/>
<path d="M2340 3036 c-10 -13 -10 -19 0 -32 12 -14 15 -14 29 0 14 15 14 17 0
32 -14 14 -17 14 -29 0z"/>
<path d="M2143 2972 c-46 -1 -83 -5 -83 -8 0 -3 7 -13 16 -21 21 -22 17 -179
-6 -193 -18 -11 -16 -13 38 -33 57 -23 88 -21 106 5 18 25 13 36 -8 19 -8 -7
-27 -11 -43 -9 -26 3 -28 7 -31 52 l-3 49 39 -7 c41 -6 52 3 52 42 -1 15 -2
15 -11 0 -6 -12 -22 -18 -44 -18 l-35 0 0 49 c0 47 1 49 33 55 26 5 35 2 50
-15 20 -25 25 -23 29 11 3 27 6 27 -99 22z"/>
<path d="M3042 2968 c-5 -7 -29 -60 -52 -118 -23 -58 -47 -108 -53 -112 -6 -4
-8 -10 -4 -14 10 -10 44 23 51 51 6 23 31 35 74 35 37 0 66 -95 37 -124 -25
-24 -12 -30 24 -11 18 9 31 23 31 34 0 20 -79 251 -90 264 -4 4 -12 2 -18 -5z
m16 -95 c6 -20 10 -38 9 -39 -9 -7 -69 -14 -66 -8 2 5 11 26 19 47 8 20 17 37
20 37 4 0 12 -17 18 -37z"/>
<path d="M2300 2960 c0 -5 7 -10 15 -10 23 0 22 -192 -1 -215 -24 -24 -13 -27
26 -7 l35 17 -4 87 c-2 81 -1 87 20 99 22 11 22 12 4 19 -42 15 -95 21 -95 10z"/>
<path d="M2460 2961 c0 -6 5 -13 10 -16 14 -8 13 -211 -1 -237 -6 -11 -9 -22
-6 -24 2 -2 34 5 71 16 92 29 156 89 156 147 0 48 -29 89 -76 109 -38 16 -154
19 -154 5z m163 -42 c21 -26 22 -90 2 -129 -14 -27 -71 -70 -94 -70 -16 0 -15
227 2 233 21 7 71 -12 90 -34z"/>
<path d="M2563 2873 c-17 -6 -17 -28 0 -41 9 -8 16 -6 24 8 14 21 -2 41 -24
33z"/>
<path d="M3213 2959 c14 -8 17 -25 17 -109 0 -82 -3 -100 -15 -100 -8 0 -15
-4 -15 -10 0 -5 24 -9 54 -9 29 1 63 -4 75 -10 26 -15 35 -10 51 29 16 38 5
52 -16 21 -12 -17 -24 -21 -52 -19 l-37 3 -3 88 c-3 82 -2 88 19 96 20 7 17 9
-24 19 -57 15 -78 15 -54 1z"/>
<path d="M2903 2622 c11 -12 17 -36 17 -70 l0 -52 -56 0 -57 0 6 40 5 40 -39
0 c-43 0 -46 -4 -23 -27 13 -13 15 -32 12 -87 -2 -42 -9 -71 -16 -74 -25 -8
-11 -22 16 -16 34 9 42 20 42 67 l0 37 55 0 55 0 0 -68 c0 -62 -2 -70 -22 -80
-22 -10 -21 -11 9 -11 21 -1 36 5 42 17 5 10 11 79 13 154 l3 137 -29 5 c-45
9 -50 7 -33 -12z"/>
<path d="M2282 2584 c-11 -22 -34 -76 -52 -121 -17 -46 -36 -83 -41 -83 -6 0
-7 -5 -4 -11 9 -14 42 16 49 46 6 23 31 35 73 35 17 0 27 -10 38 -36 19 -47
19 -69 -1 -89 -24 -23 -11 -29 25 -10 21 10 31 23 31 38 0 23 -77 246 -91 261
-4 4 -16 -9 -27 -30z m28 -70 c14 -41 15 -40 -27 -49 l-33 -7 17 46 c10 25 20
46 24 46 4 0 13 -16 19 -36z"/>
<path d="M3127 2573 c-13 -26 -36 -81 -51 -120 -15 -40 -32 -73 -37 -73 -6 0
-7 -5 -4 -11 9 -14 42 16 49 46 6 23 31 35 73 35 17 0 27 -10 38 -36 19 -47
19 -69 -1 -89 -24 -23 -11 -29 25 -10 21 10 31 23 31 38 0 23 -80 251 -93 263
-3 3 -17 -16 -30 -43z m32 -59 c7 -19 11 -37 9 -39 -9 -8 -70 -16 -67 -9 2 5
11 26 19 47 8 20 17 37 20 37 3 0 12 -16 19 -36z"/>
<path d="M2460 2601 c0 -6 5 -11 10 -11 15 0 13 -233 -2 -248 -19 -19 -5 -22
47 -8 65 17 106 39 143 75 34 35 43 70 30 117 -14 53 -57 77 -149 82 -55 3
-79 1 -79 -7z m157 -35 c23 -20 28 -32 28 -69 0 -31 -7 -55 -21 -74 -25 -33
-79 -67 -94 -58 -6 4 -10 51 -10 116 l0 109 34 0 c22 0 45 -9 63 -24z"/>
<path d="M2562 2507 c-9 -10 -9 -18 1 -31 12 -16 14 -17 27 -1 11 14 11 18 -2
31 -12 13 -16 13 -26 1z"/>
<path d="M1373 1935 c0 -22 2 -30 4 -17 2 12 2 30 0 40 -3 9 -5 -1 -4 -23z"/>
<path d="M1292 1860 c0 -14 2 -19 5 -12 2 6 2 18 0 25 -3 6 -5 1 -5 -13z"/>
<path d="M1380 1844 c0 -16 5 -36 11 -44 7 -11 8 -4 3 25 -8 50 -14 58 -14 19z"/>
<path d="M2550 1759 c0 -5 5 -7 10 -4 6 3 10 8 10 11 0 2 -4 4 -10 4 -5 0 -10
-5 -10 -11z"/>
<path d="M2020 1740 c-9 -6 -10 -10 -3 -10 6 0 15 5 18 10 8 12 4 12 -15 0z"/>
<path d="M2518 1683 c6 -2 18 -2 25 0 6 3 1 5 -13 5 -14 0 -19 -2 -12 -5z"/>
<path d="M2145 1530 c9 -15 45 -32 45 -22 0 5 -12 14 -26 20 -14 7 -23 8 -19
2z"/>
<path d="M2252 1490 c0 -19 2 -27 5 -17 2 9 2 25 0 35 -3 9 -5 1 -5 -18z"/>
<path d="M2130 1479 c0 -5 11 -9 25 -9 14 0 25 2 25 4 0 2 -11 6 -25 8 -14 3
-25 1 -25 -3z"/>
<path d="M2380 1424 c0 -8 5 -12 10 -9 6 4 8 11 5 16 -9 14 -15 11 -15 -7z"/>
<path d="M2270 1418 c0 -7 5 -20 10 -28 8 -12 10 -9 10 13 0 15 -4 27 -10 27
-5 0 -10 -6 -10 -12z"/>
<path d="M738 1114 c12 -8 22 -25 21 -37 l0 -22 -9 23 c-5 12 -14 23 -20 23
-35 5 -44 2 -54 -14 -12 -19 0 -32 41 -43 33 -9 53 2 53 29 0 23 -27 57 -46
57 -4 0 2 -7 14 -16z m-18 -36 c0 -5 5 -6 12 -2 6 4 8 3 4 -4 -3 -6 -16 -9
-28 -7 -26 5 -32 11 -24 24 8 12 36 3 36 -11z"/>
<path d="M985 1070 c14 -6 2 -9 -42 -9 -55 -1 -123 -24 -123 -41 0 -8 62 -30
83 -30 16 0 25 -23 42 -105 10 -52 62 -123 105 -145 35 -18 45 -19 83 -8 37 9
54 9 104 -5 81 -23 127 -21 217 7 142 46 221 59 324 54 83 -3 107 -8 163 -35
36 -16 95 -55 131 -85 35 -31 83 -67 107 -82 44 -28 78 -74 88 -118 3 -16 10
-28 15 -28 8 0 5 18 -10 59 -3 9 -1 12 6 7 15 -9 16 6 1 21 -11 11 6 26 36 34
6 1 27 13 47 26 40 27 68 83 68 136 0 46 -39 118 -78 144 -47 31 -131 47 -179
34 -63 -18 -74 -15 -67 15 5 21 4 25 -6 19 -8 -5 -25 -9 -39 -10 -56 -4 -145
-37 -167 -60 -22 -24 -35 -29 -61 -26 -21 3 -14 -15 10 -26 17 -8 9 -9 -35 -5
-81 6 -205 -14 -329 -54 -58 -19 -122 -34 -141 -34 -32 0 -38 5 -58 42 -41 79
-144 198 -172 198 -15 0 -17 -7 -12 -47 8 -70 24 -136 37 -152 9 -12 9 -13 0
-7 -8 4 -13 2 -13 -5 0 -18 -71 -1 -97 23 -31 29 -69 105 -77 155 -3 23 -9 48
-12 56 -3 10 2 18 14 22 11 3 32 15 47 26 20 17 23 24 14 35 -6 8 -19 14 -28
13 -12 0 -11 -2 4 -9z m5 -26 c0 -11 -71 -34 -105 -34 -39 0 -43 6 -17 26 16
13 122 20 122 8z"/>
<path d="M2971 1048 c-18 -18 -59 -73 -91 -123 -322 -499 -926 -750 -1516
-630 -176 36 -368 116 -517 216 -146 98 -328 272 -312 299 4 6 13 9 21 6 8 -3
14 1 14 9 0 8 7 15 15 15 11 0 15 -11 15 -38 0 -26 7 -45 20 -57 19 -17 19
-16 31 29 6 25 15 46 19 46 11 0 21 -72 15 -111 -4 -29 -3 -30 4 -9 15 42 12
84 -8 123 -14 27 -16 39 -8 42 7 3 39 13 72 23 l60 18 1 59 c1 54 1 55 -3 10
-2 -27 -8 -53 -12 -58 -4 -4 -47 -19 -97 -33 -49 -14 -114 -37 -144 -51 l-55
-26 45 -51 c169 -190 308 -298 504 -392 248 -118 463 -160 736 -143 266 16
496 94 730 247 108 70 318 279 385 382 116 178 154 278 76 198z m-2327 -220
c-14 -47 -21 -51 -26 -14 -3 30 -1 36 15 36 14 0 17 -5 11 -22z"/>
<path d="M394 973 c9 -18 16 -39 16 -47 0 -23 36 -29 65 -10 32 21 32 34 1 34
-14 0 -32 7 -40 16 -12 12 -16 12 -16 2 0 -7 -10 -2 -21 12 l-20 25 15 -32z
m61 -51 c-3 -3 -11 0 -18 7 -9 10 -8 11 6 5 10 -3 15 -9 12 -12z"/>
<path d="M565 901 c-6 -5 -19 -11 -30 -14 -19 -4 -19 -5 1 -6 12 0 27 6 34 14
14 16 10 20 -5 6z"/>
<path d="M416 875 c6 -31 40 -75 57 -75 5 0 -2 9 -17 21 -37 29 -33 47 12 52
l37 4 -42 1 c-23 1 -44 8 -47 15 -3 6 -4 -1 0 -18z"/>
<path d="M934 769 c18 -80 19 -92 6 -102 -10 -8 -15 -32 -16 -67 l-2 -55 11
58 c11 59 23 73 30 35 2 -13 2 4 -1 37 -5 65 -28 165 -41 178 -4 4 2 -33 13
-84z"/>
<path d="M2468 613 c-21 -24 -64 -112 -46 -93 16 16 71 110 65 110 -2 0 -11
-8 -19 -17z"/>
<path d="M2121 494 c14 -31 19 -58 16 -80 -3 -19 -2 -34 3 -34 5 0 10 21 12
48 l3 47 13 -42 c12 -41 14 -42 38 -31 l26 12 -23 18 c-13 10 -31 24 -39 30
-8 7 -18 12 -21 11 -4 -1 -12 11 -19 28 -7 16 -16 32 -21 35 -4 2 1 -16 12
-42z"/>
</g>
</svg>
